<svg aria-hidden="true" style="position: absolute; overflow: hidden;" version="1.1" xmlns="http://www.w3.org/2000/svg" xmlns:xlink="http://www.w3.org/1999/xlink">
<defs>

<symbol id="icon-mob-menu" viewBox="0 0 45 32">
<path fill="none" stroke="#fff" style="stroke: var(--color1, #fff)" stroke-linejoin="miter" stroke-linecap="round" stroke-miterlimit="4" stroke-width="4.2667" d="M40.833 2.133h-38.701"></path>
<path fill="none" stroke="#fff" style="stroke: var(--color1, #fff)" stroke-linejoin="miter" stroke-linecap="round" stroke-miterlimit="4" stroke-width="4.2667" d="M40.833 15.050h-27.754"></path>
<path fill="none" stroke="#fff" style="stroke: var(--color1, #fff)" stroke-linejoin="miter" stroke-linecap="round" stroke-miterlimit="4" stroke-width="4.2667" d="M40.833 27.842h-38.701"></path>
</symbol>

<symbol id="icon-logo" viewBox="0 0 45 32">
<path fill="#fff" style="fill: var(--color1, #fff)" d="M7.326 31.429c-4.040 0-7.326-3.285-7.326-7.326s3.286-7.326 7.326-7.326c4.040 0 7.326 3.286 7.326 7.326 0 4.063-3.286 7.326-7.326 7.326z"></path>
<path fill="#fff" style="fill: var(--color1, #fff)" d="M24.641 0.816l-7.947 12.987c-0.222 0.377 0.022 0.844 0.444 0.844h15.895c0.422 0 0.666-0.488 0.444-0.844l-7.947-12.987c-0.222-0.333-0.688-0.333-0.888 0z"></path>
<path fill="#fff" style="fill: var(--color1, #fff)" d="M14.495 3.014l-2.864-2.864c-0.2-0.2-0.555-0.2-0.755 0l-3.152 3.152c-0.2 0.2-0.555 0.2-0.755 0l-3.152-3.152c-0.2-0.2-0.555-0.2-0.755 0l-2.864 2.864c-0.2 0.2-0.2 0.555 0 0.755l3.152 3.152c0.2 0.2 0.2 0.555 0 0.755l-3.152 3.152c-0.2 0.2-0.2 0.555 0 0.755l2.864 2.864c0.2 0.2 0.555 0.2 0.755 0l3.152-3.152c0.2-0.2 0.555-0.2 0.755 0l3.152 3.152c0.2 0.2 0.555 0.2 0.755 0l2.864-2.864c0.2-0.2 0.2-0.555 0-0.755l-3.152-3.152c-0.2-0.2-0.2-0.555 0-0.755l3.152-3.152c0.222-0.2 0.222-0.533 0-0.755z"></path>
<path fill="#fff" style="fill: var(--color1, #fff)" d="M18.092 21.839v0.932h1.621v0.644h-1.621v1.265h-0.799v-3.485h2.62v0.644h-1.82z"></path>
<path fill="#fff" style="fill: var(--color1, #fff)" d="M21.001 24.325c-0.266-0.266-0.422-0.666-0.422-1.177v-1.954h0.799v1.909c0 0.622 0.266 0.932 0.777 0.932 0.244 0 0.444-0.067 0.577-0.222s0.2-0.377 0.2-0.71v-1.909h0.799v1.954c0 0.511-0.133 0.91-0.422 1.177-0.266 0.266-0.666 0.422-1.154 0.422s-0.888-0.155-1.154-0.422z"></path>
<path fill="#fff" style="fill: var(--color1, #fff)" d="M25.329 21.861h-1.11v-0.666h3.019v0.666h-1.11v2.819h-0.799v-2.819z"></path>
<path fill="#fff" style="fill: var(--color1, #fff)" d="M28.147 24.325c-0.266-0.266-0.422-0.666-0.422-1.177v-1.954h0.799v1.909c0 0.622 0.266 0.932 0.777 0.932 0.244 0 0.444-0.067 0.577-0.222s0.2-0.377 0.2-0.71v-1.909h0.799v1.954c0 0.511-0.133 0.91-0.422 1.177-0.266 0.266-0.666 0.422-1.154 0.422s-0.866-0.155-1.154-0.422z"></path>
<path fill="#fff" style="fill: var(--color1, #fff)" d="M34.031 24.68l-0.666-0.977h-0.755v0.977h-0.799v-3.463h1.51c0.311 0 0.577 0.044 0.799 0.155s0.4 0.244 0.533 0.444c0.111 0.178 0.178 0.422 0.178 0.666 0 0.266-0.067 0.488-0.178 0.666-0.133 0.178-0.311 0.333-0.533 0.422l0.777 1.11h-0.866zM33.831 22.016c-0.133-0.111-0.311-0.155-0.555-0.155h-0.666v1.221h0.666c0.244 0 0.422-0.044 0.555-0.155s0.178-0.244 0.178-0.444c0.022-0.222-0.044-0.355-0.178-0.466z"></path>
<path fill="#fff" style="fill: var(--color1, #fff)" d="M38.317 24.036v0.644h-2.686v-3.485h2.62v0.644h-1.82v0.755h1.598v0.644h-1.598v0.799h1.887z"></path>
<path fill="#fff" style="fill: var(--color1, #fff)" d="M19.579 30.363h-1.621l-0.311 0.755h-0.821l1.554-3.463h0.799l1.554 3.463h-0.844l-0.311-0.755zM19.335 29.764l-0.555-1.332-0.555 1.332h1.11z"></path>
<path fill="#fff" style="fill: var(--color1, #fff)" d="M21.889 30.941c-0.289-0.155-0.511-0.377-0.666-0.644s-0.244-0.577-0.244-0.932c0-0.333 0.089-0.644 0.244-0.932 0.155-0.266 0.4-0.488 0.666-0.644 0.289-0.155 0.599-0.222 0.955-0.222 0.311 0 0.577 0.044 0.821 0.155s0.444 0.266 0.622 0.466l-0.511 0.466c-0.244-0.266-0.533-0.4-0.866-0.4-0.222 0-0.4 0.044-0.577 0.133s-0.311 0.222-0.4 0.4c-0.089 0.178-0.133 0.355-0.133 0.577s0.044 0.4 0.133 0.577c0.089 0.178 0.222 0.311 0.4 0.4s0.355 0.133 0.577 0.133c0.355 0 0.644-0.133 0.866-0.422l0.511 0.466c-0.155 0.2-0.377 0.355-0.622 0.466s-0.511 0.155-0.821 0.155c-0.333 0.022-0.666-0.044-0.955-0.2z"></path>
<path fill="#fff" style="fill: var(--color1, #fff)" d="M27.195 30.363h-1.621l-0.311 0.755h-0.821l1.554-3.463h0.799l1.554 3.463h-0.844l-0.311-0.755zM26.951 29.764l-0.555-1.332-0.555 1.332h1.11z"></path>
<path fill="#fff" style="fill: var(--color1, #fff)" d="M28.86 27.633h1.576c0.377 0 0.71 0.067 0.999 0.222 0.289 0.133 0.511 0.355 0.666 0.599 0.155 0.266 0.244 0.555 0.244 0.91s-0.089 0.644-0.244 0.91c-0.155 0.266-0.377 0.466-0.666 0.599s-0.622 0.222-0.999 0.222h-1.576v-3.463zM30.392 30.452c0.355 0 0.622-0.089 0.821-0.289s0.311-0.466 0.311-0.777c0-0.333-0.111-0.599-0.311-0.777-0.2-0.2-0.488-0.289-0.821-0.289h-0.733v2.153h0.733v-0.022z"></path>
<path fill="#fff" style="fill: var(--color1, #fff)" d="M35.787 30.474v0.644h-2.686v-3.485h2.62v0.644h-1.82v0.755h1.621v0.622h-1.621v0.821h1.887z"></path>
<path fill="#fff" style="fill: var(--color1, #fff)" d="M39.738 31.118v-2.087l-1.021 1.709h-0.355l-1.021-1.665v2.042h-0.755v-3.485h0.666l1.288 2.153 1.288-2.153h0.666v3.485h-0.755z"></path>
<path fill="#fff" style="fill: var(--color1, #fff)" d="M43.135 29.875v1.243h-0.799v-1.243l-1.354-2.242h0.866l0.932 1.554 0.91-1.554h0.799l-1.354 2.242z"></path>
</symbol>

</defs>
</svg>
